<svg xmlns="http://www.w3.org/2000/svg" width="20" height="18" viewBox="0 0 20 18"><defs><style>.a{fill:#fff;}</style></defs><g transform="translate(0 -19.401)"><path class="a" d="M.353,28.031l4.608,1.778,1.784,5.93a.536.536,0,0,0,.862.268l2.569-2.165a.747.747,0,0,1,.934-.027l4.633,3.477a.538.538,0,0,0,.851-.339l3.394-16.876a.55.55,0,0,0-.727-.638L.348,26.981A.569.569,0,0,0,.353,28.031Zm6.1.832,9.007-5.734a.16.16,0,0,1,.189.257L8.221,30.528a1.611,1.611,0,0,0-.478.953L7.49,33.42a.231.231,0,0,1-.455.034l-.974-3.537A.952.952,0,0,1,6.458,28.863Z" transform="translate(0 0)"/></g></svg>