<svg xmlns="http://www.w3.org/2000/svg" width="20" height="18" viewBox="0 0 20 18"><defs><style>.a{fill:#fff;}</style></defs><path class="a" d="M19.194,36.04a2.707,2.707,0,0,1-.464-1.563s0-.006,0-.01a8.868,8.868,0,0,0-8.73-9,8.468,8.468,0,0,0-3,.547,2.5,2.5,0,0,1-1.58.077,4.151,4.151,0,0,0-1.456-.153A4.352,4.352,0,0,0,.006,30.091a4.473,4.473,0,0,0,.8,2.8,2.706,2.706,0,0,1,.464,1.563v.01a8.868,8.868,0,0,0,8.73,9,8.468,8.468,0,0,0,3-.547,2.5,2.5,0,0,1,1.58-.077A4.151,4.151,0,0,0,16.037,43a4.352,4.352,0,0,0,3.958-4.151A4.473,4.473,0,0,0,19.194,36.04ZM10.32,32.854c1.76.432,4.42,1.084,4.42,4.1a3.3,3.3,0,0,1-2,3.2,7.075,7.075,0,0,1-2.862.464A6.267,6.267,0,0,1,5.3,38.312a1.382,1.382,0,0,1,.208-1.9,1.286,1.286,0,0,1,1.845.214,3.865,3.865,0,0,0,2.523,1.288c1.778.058,2.185-.487,2.237-.953.064-.569-.427-.986-2.4-1.47-1.674-.411-4.2-1.031-4.2-3.813,0-.866.342-3.693,4.74-3.693a5.91,5.91,0,0,1,4.484,2.35,1.381,1.381,0,0,1-.28,1.892,1.287,1.287,0,0,1-1.83-.28,3.917,3.917,0,0,0-2.375-1.255c-1.064-.1-2.114.291-2.114.875C8.134,32.184,8.435,32.392,10.32,32.854Z" transform="translate(0 -25.468)"/></svg>