<svg xmlns="http://www.w3.org/2000/svg" width="18" height="20" viewBox="0 0 18 20"><defs><style>.a{fill:#fff;}.b{fill:#7d3daf;}</style></defs><g transform="translate(-76.986 -71.916)"><g transform="translate(76.986 71.916)"><path class="a" d="M94.583,76.724l-.005-.023a6.432,6.432,0,0,0-4.19-4.333l-.02,0a21.689,21.689,0,0,0-8.764,0l-.021,0a6.434,6.434,0,0,0-4.19,4.333l0,.023a19.791,19.791,0,0,0,0,7.944l0,.023a6.516,6.516,0,0,0,3.959,4.27v2.107a.782.782,0,0,0,1.356.587l1.985-2.219c.431.026.861.04,1.292.04a21.781,21.781,0,0,0,4.382-.447l.02,0a6.432,6.432,0,0,0,4.19-4.333l.005-.023A19.792,19.792,0,0,0,94.583,76.724Z" transform="translate(-76.986 -71.916)"/><path class="b" d="M156.494,150.014a5.122,5.122,0,0,1-.51-.177,11.608,11.608,0,0,1-4.368-3.293,13.052,13.052,0,0,1-1.671-2.884c-.214-.492-.4-1-.579-1.51a1.42,1.42,0,0,1,.34-1.29,2.742,2.742,0,0,1,.9-.762.537.537,0,0,1,.722.193,10.588,10.588,0,0,1,1.118,1.764.909.909,0,0,1-.209,1.137c-.085.065-.162.141-.24.214a.853.853,0,0,0-.181.216.658.658,0,0,0-.035.519,4.543,4.543,0,0,0,2.339,2.921,1.084,1.084,0,0,0,.6.164c.366-.048.485-.5.742-.739a.637.637,0,0,1,.842-.042c.27.193.533.4.793.61a9.287,9.287,0,0,1,.746.641.724.724,0,0,1,.177.827,2.7,2.7,0,0,1-1.065,1.323,2.367,2.367,0,0,1-.46.165C156.314,149.952,156.651,149.959,156.494,150.014Z" transform="translate(-144.956 -135.817)"/><path class="b" d="M221.8,131.457a4.942,4.942,0,0,1,4.858,4.087c.073.41.1.829.131,1.245a.292.292,0,0,1-.274.343c-.195,0-.283-.161-.3-.336-.025-.346-.042-.694-.09-1.037a4.346,4.346,0,0,0-3.5-3.633c-.271-.048-.549-.061-.824-.09-.174-.018-.4-.029-.44-.245a.3.3,0,0,1,.293-.335c.047,0,.094,0,.141,0C224.23,131.525,221.75,131.457,221.8,131.457Z" transform="translate(-213.119 -127.694)"/><path class="b" d="M231.754,154.464a1.113,1.113,0,0,1-.024.169.276.276,0,0,1-.52.028.735.735,0,0,1-.029-.235,2.946,2.946,0,0,0-.373-1.478,2.751,2.751,0,0,0-1.154-1.082,3.318,3.318,0,0,0-.919-.282c-.139-.023-.279-.037-.418-.056a.265.265,0,0,1-.251-.3.262.262,0,0,1,.291-.258,3.824,3.824,0,0,1,1.594.415,3.223,3.223,0,0,1,1.754,2.5c.008.051.02.1.024.153.01.126.016.253.025.42C231.75,154.495,231.744,154.3,231.754,154.464Z" transform="translate(-219.29 -145.947)"/><path class="b" d="M235.418,173.077a.3.3,0,0,1-.333-.3,3.07,3.07,0,0,0-.057-.388,1.093,1.093,0,0,0-.4-.633,1.053,1.053,0,0,0-.329-.159c-.149-.043-.3-.031-.453-.068a.278.278,0,0,1-.226-.322.292.292,0,0,1,.308-.235,1.672,1.672,0,0,1,1.713,1.666.772.772,0,0,1,0,.236.242.242,0,0,1-.217.2C235.215,173.081,235.511,173.071,235.418,173.077Z" transform="translate(-224.393 -164.651)"/></g></g></svg>