<svg xmlns="http://www.w3.org/2000/svg" width="20" height="20" viewBox="0 0 20 20"><defs><style>.a{fill:#fff;}.b{fill:#4caf50;}</style></defs><path class="a" d="M10,0H10A9.994,9.994,0,0,0,1.9,15.861L.657,19.576,4.5,18.348A10,10,0,1,0,10,0Z" transform="translate(0)"/><path class="b" d="M118.89,126.631a2.821,2.821,0,0,1-1.962,1.411c-.522.111-1.2.2-3.5-.752a12.522,12.522,0,0,1-4.977-4.4,5.708,5.708,0,0,1-1.187-3.015,3.191,3.191,0,0,1,1.022-2.433,1.452,1.452,0,0,1,1.022-.359c.124,0,.235.006.335.011.294.012.441.03.635.494.241.581.828,2.015.9,2.163a.6.6,0,0,1,.042.541,1.727,1.727,0,0,1-.324.459c-.147.17-.287.3-.435.482-.135.159-.287.329-.117.622a8.872,8.872,0,0,0,1.622,2.015,7.349,7.349,0,0,0,2.344,1.446.632.632,0,0,0,.7-.111,12.093,12.093,0,0,0,.781-1.034.558.558,0,0,1,.717-.217c.27.094,1.7.8,1.992.946s.487.217.559.341A2.489,2.489,0,0,1,118.89,126.631Z" transform="translate(-103.071 -112.511)"/></svg>